# xmcd
#
# Track frame offsets:
#	150
#	23925
#	40725
#
# Disc length: 764 seconds
#
# Revision: 1
# Processed by: cddbd v1.5.1PL0 Copyright (c) Steve Scherf et al.
# Submitted via: CDex 1.50Beta5
#
DISCID=1b02fa03
DTITLE=OZWORLD - やまい
DYEAR=2001
DGENRE=Rock
TTITLE0=やまい
TTITLE1=Moon XVIII,the
TTITLE2=Fool 0,the
EXTD=
EXTT0=
EXTT1=
EXTT2=
PLAYORDER=
